<svg xmlns="http://www.w3.org/2000/svg" viewBox="0 0 64 64" fill="none" role="img" aria-label="Chorely app icon">
  <rect width="64" height="64" fill="#7FA66A"/>
  <rect x="40.6" y="18.4" width="4.8" height="8.8" rx="1.8" fill="#FFFAF0"/>
  <path d="M16.2 31.2L30.2 19.4C31.25 18.5 32.75 18.5 33.8 19.4L47.8 31.2V45.2C47.8 48.1 45.45 50.4 42.6 50.4H21.4C18.55 50.4 16.2 48.1 16.2 45.2V31.2Z" fill="#FFFAF0"/>
  <path d="M32 44.6C27.35 41.3 24.3 38.5 24.3 35.15C24.3 32.8 26.15 30.95 28.5 30.95C29.9 30.95 31.2 31.65 32 32.85C32.8 31.65 34.1 30.95 35.5 30.95C37.85 30.95 39.7 32.8 39.7 35.15C39.7 38.5 36.65 41.3 32 44.6Z" fill="#C9973D"/>
</svg>
