<svg width="640" height="200" viewBox="0 0 640 200" fill="none" xmlns="http://www.w3.org/2000/svg" role="img" aria-label="Chorely logo on dark background">
  <rect width="640" height="200" fill="#2F3A32"/>
  <g transform="translate(56 52)">
    <rect width="96" height="96" rx="24" fill="#7FA66A"/>
    <rect x="62.3" y="22.5" width="8.3" height="15" rx="3" fill="#FFFAF0"/>
    <path d="M21 45L44.9 24.9C46.7 23.4 49.3 23.4 51.1 24.9L75 45V69C75 73.97 70.97 78 66 78H30C25.03 78 21 73.97 21 69V45Z" fill="#FFFAF0"/>
    <path d="M48 67.8C40.05 62.1 34.8 57.3 34.8 51.6C34.8 47.55 37.95 44.4 42 44.4C44.4 44.4 46.6 45.6 48 47.7C49.4 45.6 51.6 44.4 54 44.4C58.05 44.4 61.2 47.55 61.2 51.6C61.2 57.3 55.95 62.1 48 67.8Z" fill="#C9973D"/>
  </g>
  <text x="180" y="116" fill="#FFFAF0" font-family="Inter, Manrope, Sora, Arial, sans-serif" font-size="46" font-weight="800" letter-spacing="-0.4">Chorely</text>
</svg>
