<svg xmlns="http://www.w3.org/2000/svg" viewBox="0 0 64 64" fill="none" role="img" aria-label="Chorely favicon">
  <rect width="64" height="64" rx="16" fill="#7FA66A"/>
  <path d="M13 30L29.7 15.9C31 14.8 32.9 14.8 34.2 15.9L51 30V46C51 49.866 47.866 53 44 53H20C16.134 53 13 49.866 13 46V30Z" fill="#FFFAF0"/>
  <path d="M32 46C26.2 41.8 22.4 38.3 22.4 34.1C22.4 31.1 24.7 28.8 27.7 28.8C29.4 28.8 31 29.7 32 31.2C33 29.7 34.6 28.8 36.3 28.8C39.3 28.8 41.6 31.1 41.6 34.1C41.6 38.3 37.8 41.8 32 46Z" fill="#C9973D"/>
</svg>
